<?xml version="1.0" encoding="utf-8"?>
<!-- Generator: Adobe Illustrator 17.0.0, SVG Export Plug-In . SVG Version: 6.00 Build 0)  -->
<!DOCTYPE svg PUBLIC "-//W3C//DTD SVG 1.1//EN" "http://www.w3.org/Graphics/SVG/1.1/DTD/svg11.dtd">
<svg version="1.1" id="Capa_1" xmlns="http://www.w3.org/2000/svg" xmlns:xlink="http://www.w3.org/1999/xlink" x="0px" y="0px"
	 width="595.28px" height="841.89px" viewBox="0 0 595.28 841.89" enable-background="new 0 0 595.28 841.89" xml:space="preserve">
<g>
	<g>
		<g>
			<path fill="#1B1B47" d="M297.64,123.305c-109.411,0-198.427,89.016-198.427,198.427c0,32.857,8.212,65.424,23.81,94.309
				l163.765,296.15c2.18,3.948,6.347,6.395,10.852,6.395s8.671-2.446,10.851-6.406L472.28,415.932
				c15.575-28.751,23.786-61.33,23.786-94.2C496.067,212.321,407.051,123.305,297.64,123.305z M450.529,404.038L297.64,680.557
				L144.775,404.135c-13.565-25.154-20.758-53.652-20.758-82.403c0-95.738,77.898-173.623,173.623-173.623
				s173.623,77.886,173.623,173.623C471.263,350.495,464.07,378.993,450.529,404.038z"/>
			<path fill="#1B1B47" d="M297.64,185.313c-75.21,0-136.418,61.196-136.418,136.418S222.431,458.15,297.64,458.15
				s136.418-61.196,136.418-136.418S372.85,185.313,297.64,185.313z M297.64,433.347c-61.549,0-111.615-50.067-111.615-111.615
				s50.067-111.615,111.615-111.615s111.615,50.067,111.615,111.615S359.189,433.347,297.64,433.347z"/>
			<path fill="#1B1B47" d="M347.247,309.33h-37.205v-37.205c0-6.855-5.547-12.402-12.402-12.402s-12.402,5.547-12.402,12.402v37.205
				h-37.205c-6.855,0-12.402,5.547-12.402,12.402s5.547,12.402,12.402,12.402h37.205v37.205c0,6.855,5.547,12.402,12.402,12.402
				s12.402-5.547,12.402-12.402v-37.205h37.205c6.855,0,12.402-5.547,12.402-12.402C359.648,314.877,354.102,309.33,347.247,309.33z
				"/>
		</g>
	</g>
</g>
</svg>
